<?xml version="1.0" encoding="iso-8859-1"?>
<!-- Generator: Adobe Illustrator 19.0.0, SVG Export Plug-In . SVG Version: 6.00 Build 0)  -->
<svg version="1.1" id="Layer_1" xmlns="http://www.w3.org/2000/svg" xmlns:xlink="http://www.w3.org/1999/xlink" x="0px" y="0px"
	 viewBox="0 0 491.52 491.52" style="enable-background:new 0 0 491.52 491.52;" xml:space="preserve">
<polygon style="fill:#EBF0F3;" points="368.883,0 104.268,0 104.268,491.52 471.117,491.52 471.117,102.234 "/>
<circle style="fill:#FFFFFF;" cx="208.517" cy="127.98" r="81.695"/>
<polygon style="fill:#D5D6DB;" points="368.883,102.234 471.117,102.234 368.883,0 "/>
<polygon style="fill:#E1E6E9;" points="471.117,102.234 368.883,102.234 471.117,173.099 "/>
<g>
	<rect x="134.246" y="205.21" style="fill:#D5D6DB;" width="306.857" height="8.934"/>
	<rect x="134.246" y="244.27" style="fill:#D5D6DB;" width="306.857" height="8.934"/>
	<rect x="134.246" y="283.341" style="fill:#D5D6DB;" width="306.857" height="8.934"/>
	<rect x="134.246" y="322.381" style="fill:#D5D6DB;" width="306.857" height="8.934"/>
	<rect x="134.246" y="361.421" style="fill:#D5D6DB;" width="306.857" height="8.934"/>
	<rect x="134.246" y="400.486" style="fill:#D5D6DB;" width="306.857" height="8.934"/>
	<rect x="134.246" y="439.552" style="fill:#D5D6DB;" width="250.506" height="8.934"/>
</g>
<path style="fill:#3A556A;" d="M115.374,223.584l-79.047,79.047c8.373,7.821,17.537,13.565,20.714,10.389l73.885-73.884
	L115.374,223.584z"/>
<g>
	<path style="fill:#64798A;" d="M95.181,203.39l-73.885,73.884c-3.782,3.782,5.062,16.045,15.032,25.356l79.047-79.047
		L95.181,203.39z"/>
	<path style="fill:#64798A;" d="M243.23,160.985V84.757c0-0.914-0.154-1.824-0.462-2.686c-2.534-7.119-8.666-7.978-8.666-7.978
		c0.784-3.985-0.464-6.25-1.908-7.518c-1.165-1.023-2.703-1.541-4.267-1.541h-26.492c-15.213,0-27.66,12.203-27.66,27.119v68.832"/>
</g>
<path style="fill:#F6C358;" d="M228.83,147.315c-1.551-1.705-2.366-3.934-2.366-6.218v-1.82c-0.221,0.274-0.421,0.586-0.647,0.85
	c-4.834,5.659-10.809,9.05-17.303,9.05c-6.504,0-12.487-3.402-17.325-9.076c-0.226-0.264-0.426-0.577-0.646-0.851v1.848
	c0,2.284-0.815,4.513-2.366,6.218c-0.711,0.782-1.629,1.616-2.778,2.419c0.112,0.124,0.334,0.372,0.729,0.842
	c1.189,1.416,3.577,4.481,6.458,9.256c4.941,1.878,10.298,2.933,15.916,2.933c5.617,0,10.974-1.055,15.915-2.933
	c2.882-4.776,5.271-7.84,6.459-9.257c0.395-0.47,0.617-0.718,0.729-0.841C230.458,148.93,229.54,148.096,228.83,147.315z"/>
<path style="fill:#FCD462;" d="M208.514,149.612c6.494,0,12.468-3.391,17.303-9.05c0.226-0.264,0.426-0.576,0.647-0.85
	c6.711-8.339,11.059-21.16,11.059-35.641c-0.771-5.858-6.168-9.449-6.168-9.449l-17.347-5.668c-2.207,1.802-5.07,2.917-7.462,3.59
	c-2.26,0.636-4.602,0.945-6.953,0.945H190.3c-10.215,0.945-10.793,10.582-10.793,10.582c0,14.464,4.338,27.273,11.037,35.613
	c0.22,0.274,0.421,0.587,0.646,0.851C196.028,146.21,202.011,149.612,208.514,149.612z"/>
<path style="fill:#44C4A1;" d="M196.113,166.805c4.31,8.258,8.985,19.582,12.389,34.28c3.413-14.734,8.103-26.08,12.421-34.344
	c-3.979,0.967-8.124,1.533-12.421,1.533C204.224,168.274,200.078,167.757,196.113,166.805z"/>
<path style="fill:#31978C;" d="M191.644,159.582c1.286,2.13,2.661,4.597,4.079,7.386c4.091,1.008,8.367,1.556,12.78,1.556
	c4.432,0,8.708-0.6,12.812-1.624c1.405-2.762,2.769-5.206,4.044-7.319c-5.233,1.989-10.907,3.106-16.857,3.106
	C202.551,162.688,196.878,161.571,191.644,159.582z"/>
<path style="fill:#3A556A;" d="M184.466,150.572l-10.043,5.317l-13.264,7.023c0,0-9.976,6.113-9.976,15.689v22.489H208.5l0-0.002"/>
<path style="fill:#EBF0F3;" d="M196.437,166.805c-1.339-2.633-2.637-4.962-3.851-6.973c-2.881-4.775-5.269-7.839-6.458-9.256
	c-0.394-0.47-0.617-0.718-0.729-0.842c-0.036-0.04-0.933,0.838-0.933,0.838l-4.659,5.431c-0.942,1.098-0.901,2.712,0.095,3.763
	l10.976,11.576l-1.834-0.042c-2.5-0.057-3.895,2.81-2.277,4.679l21.733,25.108l0.001-0.003
	C205.187,186.387,200.634,175.063,196.437,166.805z"/>
<path style="fill:#3A556A;" d="M208.5,201.09h0.002h57.317v-22.489c0-9.576-9.975-15.689-9.975-15.689l-13.264-7.023l-10.043-5.317"
	/>
<path style="fill:#EBF0F3;" d="M227.958,171.301l-1.834,0.042l10.976-11.576c0.997-1.051,1.037-2.665,0.095-3.763l-4.659-5.431
	c0,0-0.896-0.879-0.933-0.838c-0.112,0.124-0.334,0.371-0.729,0.841c-1.188,1.416-3.577,4.481-6.459,9.257
	c-1.204,1.995-2.492,4.302-3.818,6.91c-4.206,8.263-8.773,19.609-12.097,34.344l-0.001,0.003l0,0.002l21.735-25.11
	C231.853,174.111,230.458,171.244,227.958,171.301z"/>
<path style="fill:#FCD462;" d="M276.865,194.177c37.756-37.756,37.755-98.971-0.001-136.727
	c-37.756-37.757-98.971-37.757-136.727-0.001c-34.94,34.94-37.478,89.936-7.749,127.872l-12.631,12.631
	c-6.14-4.721-11.718-7.423-13.921-5.219L95.181,203.39l35.745,35.745l10.655-10.656c2.204-2.204-0.499-7.782-5.219-13.922
	l12.631-12.631C186.93,231.654,241.924,229.117,276.865,194.177z M156.629,177.686c-28.603-28.603-28.605-75.142-0.002-103.745
	c28.603-28.604,75.146-28.606,103.749-0.003s28.601,75.146-0.003,103.749C231.771,206.291,185.232,206.289,156.629,177.686z"/>
<g>
</g>
<g>
</g>
<g>
</g>
<g>
</g>
<g>
</g>
<g>
</g>
<g>
</g>
<g>
</g>
<g>
</g>
<g>
</g>
<g>
</g>
<g>
</g>
<g>
</g>
<g>
</g>
<g>
</g>
</svg>
